{
    "asset" : {
        "generator" : "Khronos glTF Blender I/O v1.7.33",
        "version" : "2.0"
    },
    "scene" : 0,
    "scenes" : [
        {
            "name" : "Scene",
            "nodes" : [
                0,
                1,
                2,
                3,
                4
            ]
        }
    ],
    "nodes" : [
        {
            "mesh" : 0,
            "name" : "Body"
        },
        {
            "mesh" : 1,
            "name" : "FrontRightWheel",
            "translation" : [
                -0.17000000178813934,
                0.06729743629693985,
                0.2908613681793213
            ]
        },
        {
            "mesh" : 2,
            "name" : "FrontLeftWheel",
            "translation" : [
                0.17000000178813934,
                0.06729743629693985,
                0.2908613681793213
            ]
        },
        {
            "mesh" : 3,
            "name" : "BackLeftWheel",
            "translation" : [
                0.17000000178813934,
                0.06729743629693985,
                -0.3300490081310272
            ]
        },
        {
            "mesh" : 4,
            "name" : "BackRightWheel",
            "translation" : [
                -0.17000000178813934,
                0.06729743629693985,
                -0.3300490081310272
            ]
        }
    ],
    "materials" : [
        {
            "doubleSided" : true,
            "name" : "Material",
            "pbrMetallicRoughness" : {
                "baseColorTexture" : {
                    "index" : 0
                },
                "metallicFactor" : 0,
                "roughnessFactor" : 0.4000000059604645
            }
        },
        {
            "doubleSided" : true,
            "name" : "Material.001",
            "pbrMetallicRoughness" : {
                "baseColorTexture" : {
                    "index" : 1
                },
                "metallicFactor" : 0,
                "roughnessFactor" : 0.4000000059604645
            }
        },
        {
            "doubleSided" : true,
            "name" : "Material.002",
            "pbrMetallicRoughness" : {
                "baseColorTexture" : {
                    "index" : 2
                },
                "metallicFactor" : 0,
                "roughnessFactor" : 0.4000000059604645
            }
        },
        {
            "doubleSided" : true,
            "name" : "Material.003",
            "pbrMetallicRoughness" : {
                "baseColorTexture" : {
                    "index" : 3
                },
                "metallicFactor" : 0,
                "roughnessFactor" : 0.4000000059604645
            }
        }
    ],
    "meshes" : [
        {
            "name" : "Cube",
            "primitives" : [
                {
                    "attributes" : {
                        "POSITION" : 0,
                        "NORMAL" : 1,
                        "TEXCOORD_0" : 2
                    },
                    "indices" : 3,
                    "material" : 0
                }
            ]
        },
        {
            "name" : "Cube.001",
            "primitives" : [
                {
                    "attributes" : {
                        "POSITION" : 4,
                        "NORMAL" : 5,
                        "TEXCOORD_0" : 6
                    },
                    "indices" : 7,
                    "material" : 0
                }
            ]
        },
        {
            "name" : "Cube.003",
            "primitives" : [
                {
                    "attributes" : {
                        "POSITION" : 8,
                        "NORMAL" : 9,
                        "TEXCOORD_0" : 10
                    },
                    "indices" : 7,
                    "material" : 1
                }
            ]
        },
        {
            "name" : "Cube.004",
            "primitives" : [
                {
                    "attributes" : {
                        "POSITION" : 11,
                        "NORMAL" : 12,
                        "TEXCOORD_0" : 13
                    },
                    "indices" : 7,
                    "material" : 2
                }
            ]
        },
        {
            "name" : "Cube.005",
            "primitives" : [
                {
                    "attributes" : {
                        "POSITION" : 14,
                        "NORMAL" : 15,
                        "TEXCOORD_0" : 16
                    },
                    "indices" : 7,
                    "material" : 3
                }
            ]
        }
    ],
    "textures" : [
        {
            "sampler" : 0,
            "source" : 0
        },
        {
            "sampler" : 0,
            "source" : 0
        },
        {
            "sampler" : 0,
            "source" : 0
        },
        {
            "sampler" : 0,
            "source" : 0
        }
    ],
    "images" : [
        {
            "bufferView" : 4,
            "mimeType" : "image/png",
            "name" : "blue"
        }
    ],
    "accessors" : [
        {
            "bufferView" : 0,
            "componentType" : 5126,
            "count" : 384,
            "max" : [
                0.18356187641620636,
                0.3023703992366791,
                0.5119844079017639
            ],
            "min" : [
                -0.18356187641620636,
                0.05489656329154968,
                -0.510070264339447
            ],
            "type" : "VEC3"
        },
        {
            "bufferView" : 1,
            "componentType" : 5126,
            "count" : 384,
            "type" : "VEC3"
        },
        {
            "bufferView" : 2,
            "componentType" : 5126,
            "count" : 384,
            "type" : "VEC2"
        },
        {
            "bufferView" : 3,
            "componentType" : 5123,
            "count" : 876,
            "type" : "SCALAR"
        },
        {
            "bufferView" : 5,
            "componentType" : 5126,
            "count" : 48,
            "max" : [
                0.02390681952238083,
                0.06446495652198792,
                0.06446494907140732
            ],
            "min" : [
                -0.023906787857413292,
                -0.06446495652198792,
                -0.06446495652198792
            ],
            "type" : "VEC3"
        },
        {
            "bufferView" : 6,
            "componentType" : 5126,
            "count" : 48,
            "type" : "VEC3"
        },
        {
            "bufferView" : 7,
            "componentType" : 5126,
            "count" : 48,
            "type" : "VEC2"
        },
        {
            "bufferView" : 8,
            "componentType" : 5123,
            "count" : 84,
            "type" : "SCALAR"
        },
        {
            "bufferView" : 9,
            "componentType" : 5126,
            "count" : 48,
            "max" : [
                0.02390681952238083,
                0.06446495652198792,
                0.06446494907140732
            ],
            "min" : [
                -0.023906787857413292,
                -0.06446495652198792,
                -0.06446495652198792
            ],
            "type" : "VEC3"
        },
        {
            "bufferView" : 10,
            "componentType" : 5126,
            "count" : 48,
            "type" : "VEC3"
        },
        {
            "bufferView" : 11,
            "componentType" : 5126,
            "count" : 48,
            "type" : "VEC2"
        },
        {
            "bufferView" : 12,
            "componentType" : 5126,
            "count" : 48,
            "max" : [
                0.02390681952238083,
                0.06446495652198792,
                0.06446494907140732
            ],
            "min" : [
                -0.023906787857413292,
                -0.06446495652198792,
                -0.06446495652198792
            ],
            "type" : "VEC3"
        },
        {
            "bufferView" : 13,
            "componentType" : 5126,
            "count" : 48,
            "type" : "VEC3"
        },
        {
            "bufferView" : 14,
            "componentType" : 5126,
            "count" : 48,
            "type" : "VEC2"
        },
        {
            "bufferView" : 15,
            "componentType" : 5126,
            "count" : 48,
            "max" : [
                0.02390681952238083,
                0.06446495652198792,
                0.06446494907140732
            ],
            "min" : [
                -0.023906787857413292,
                -0.06446495652198792,
                -0.06446495652198792
            ],
            "type" : "VEC3"
        },
        {
            "bufferView" : 16,
            "componentType" : 5126,
            "count" : 48,
            "type" : "VEC3"
        },
        {
            "bufferView" : 17,
            "componentType" : 5126,
            "count" : 48,
            "type" : "VEC2"
        }
    ],
    "bufferViews" : [
        {
            "buffer" : 0,
            "byteLength" : 4608,
            "byteOffset" : 0
        },
        {
            "buffer" : 0,
            "byteLength" : 4608,
            "byteOffset" : 4608
        },
        {
            "buffer" : 0,
            "byteLength" : 3072,
            "byteOffset" : 9216
        },
        {
            "buffer" : 0,
            "byteLength" : 1752,
            "byteOffset" : 12288
        },
        {
            "buffer" : 0,
            "byteLength" : 152,
            "byteOffset" : 14040
        },
        {
            "buffer" : 0,
            "byteLength" : 576,
            "byteOffset" : 14192
        },
        {
            "buffer" : 0,
            "byteLength" : 576,
            "byteOffset" : 14768
        },
        {
            "buffer" : 0,
            "byteLength" : 384,
            "byteOffset" : 15344
        },
        {
            "buffer" : 0,
            "byteLength" : 168,
            "byteOffset" : 15728
        },
        {
            "buffer" : 0,
            "byteLength" : 576,
            "byteOffset" : 15896
        },
        {
            "buffer" : 0,
            "byteLength" : 576,
            "byteOffset" : 16472
        },
        {
            "buffer" : 0,
            "byteLength" : 384,
            "byteOffset" : 17048
        },
        {
            "buffer" : 0,
            "byteLength" : 576,
            "byteOffset" : 17432
        },
        {
            "buffer" : 0,
            "byteLength" : 576,
            "byteOffset" : 18008
        },
        {
            "buffer" : 0,
            "byteLength" : 384,
            "byteOffset" : 18584
        },
        {
            "buffer" : 0,
            "byteLength" : 576,
            "byteOffset" : 18968
        },
        {
            "buffer" : 0,
            "byteLength" : 576,
            "byteOffset" : 19544
        },
        {
            "buffer" : 0,
            "byteLength" : 384,
            "byteOffset" : 20120
        }
    ],
    "samplers" : [
        {
            "magFilter" : 9729,
            "minFilter" : 9987
        }
    ],
    "buffers" : [
        {
            "byteLength" : 20504,
            "uri" : "data:application/octet-stream;base64,"
        }
    ]
}
